<svg class="rich-terminal" viewBox="0 0 994 611.1999999999999" xmlns="http://www.w3.org/2000/svg">
    <!-- Generated with Rich https://www.textualize.io -->
    <style>

    @font-face {
        font-family: "Fira Code";
        src: local("FiraCode-Regular"),
                url("https://cdnjs.cloudflare.com/ajax/libs/firacode/6.2.0/woff2/FiraCode-Regular.woff2") format("woff2"),
                url("https://cdnjs.cloudflare.com/ajax/libs/firacode/6.2.0/woff/FiraCode-Regular.woff") format("woff");
        font-style: normal;
        font-weight: 400;
    }
    @font-face {
        font-family: "Fira Code";
        src: local("FiraCode-Bold"),
                url("https://cdnjs.cloudflare.com/ajax/libs/firacode/6.2.0/woff2/FiraCode-Bold.woff2") format("woff2"),
                url("https://cdnjs.cloudflare.com/ajax/libs/firacode/6.2.0/woff/FiraCode-Bold.woff") format("woff");
        font-style: bold;
        font-weight: 700;
    }

    .terminal-2071528186-matrix {
        font-family: Fira Code, monospace;
        font-size: 20px;
        line-height: 24.4px;
        font-variant-east-asian: full-width;
    }

    .terminal-2071528186-title {
        font-size: 18px;
        font-weight: bold;
        font-family: arial;
    }

    .terminal-2071528186-r1 { fill: #c5c8c6 }
.terminal-2071528186-r2 { fill: #ff9900;font-weight: bold }
.terminal-2071528186-r3 { fill: #105e35;font-weight: bold }
.terminal-2071528186-r4 { fill: #66d9ef }
.terminal-2071528186-r5 { fill: #f8f8f2 }
.terminal-2071528186-r6 { fill: #a6e22e }
.terminal-2071528186-r7 { fill: #ff4689 }
.terminal-2071528186-r8 { fill: #ae81ff }
.terminal-2071528186-r9 { fill: #959077 }
.terminal-2071528186-r10 { fill: #626262 }
.terminal-2071528186-r11 { fill: #626262;font-weight: bold }
    </style>

    <defs>
    <clipPath id="terminal-2071528186-clip-terminal">
      <rect x="0" y="0" width="975.0" height="560.1999999999999" />
    </clipPath>
    <clipPath id="terminal-2071528186-line-0">
    <rect x="0" y="1.5" width="976" height="24.65"/>
            </clipPath>
<clipPath id="terminal-2071528186-line-1">
    <rect x="0" y="25.9" width="976" height="24.65"/>
            </clipPath>
<clipPath id="terminal-2071528186-line-2">
    <rect x="0" y="50.3" width="976" height="24.65"/>
            </clipPath>
<clipPath id="terminal-2071528186-line-3">
    <rect x="0" y="74.7" width="976" height="24.65"/>
            </clipPath>
<clipPath id="terminal-2071528186-line-4">
    <rect x="0" y="99.1" width="976" height="24.65"/>
            </clipPath>
<clipPath id="terminal-2071528186-line-5">
    <rect x="0" y="123.5" width="976" height="24.65"/>
            </clipPath>
<clipPath id="terminal-2071528186-line-6">
    <rect x="0" y="147.9" width="976" height="24.65"/>
            </clipPath>
<clipPath id="terminal-2071528186-line-7">
    <rect x="0" y="172.3" width="976" height="24.65"/>
            </clipPath>
<clipPath id="terminal-2071528186-line-8">
    <rect x="0" y="196.7" width="976" height="24.65"/>
            </clipPath>
<clipPath id="terminal-2071528186-line-9">
    <rect x="0" y="221.1" width="976" height="24.65"/>
            </clipPath>
<clipPath id="terminal-2071528186-line-10">
    <rect x="0" y="245.5" width="976" height="24.65"/>
            </clipPath>
<clipPath id="terminal-2071528186-line-11">
    <rect x="0" y="269.9" width="976" height="24.65"/>
            </clipPath>
<clipPath id="terminal-2071528186-line-12">
    <rect x="0" y="294.3" width="976" height="24.65"/>
            </clipPath>
<clipPath id="terminal-2071528186-line-13">
    <rect x="0" y="318.7" width="976" height="24.65"/>
            </clipPath>
<clipPath id="terminal-2071528186-line-14">
    <rect x="0" y="343.1" width="976" height="24.65"/>
            </clipPath>
<clipPath id="terminal-2071528186-line-15">
    <rect x="0" y="367.5" width="976" height="24.65"/>
            </clipPath>
<clipPath id="terminal-2071528186-line-16">
    <rect x="0" y="391.9" width="976" height="24.65"/>
            </clipPath>
<clipPath id="terminal-2071528186-line-17">
    <rect x="0" y="416.3" width="976" height="24.65"/>
            </clipPath>
<clipPath id="terminal-2071528186-line-18">
    <rect x="0" y="440.7" width="976" height="24.65"/>
            </clipPath>
<clipPath id="terminal-2071528186-line-19">
    <rect x="0" y="465.1" width="976" height="24.65"/>
            </clipPath>
<clipPath id="terminal-2071528186-line-20">
    <rect x="0" y="489.5" width="976" height="24.65"/>
            </clipPath>
<clipPath id="terminal-2071528186-line-21">
    <rect x="0" y="513.9" width="976" height="24.65"/>
            </clipPath>
    </defs>

    <rect fill="#292929" stroke="rgba(255,255,255,0.35)" stroke-width="1" x="1" y="1" width="992" height="609.2" rx="8"/><text class="terminal-2071528186-title" fill="#c5c8c6" text-anchor="middle" x="496" y="27">AIChat&#160;Chatting</text>
            <g transform="translate(26,22)">
            <circle cx="0" cy="0" r="7" fill="#ff5f57"/>
            <circle cx="22" cy="0" r="7" fill="#febc2e"/>
            <circle cx="44" cy="0" r="7" fill="#28c840"/>
            </g>
        
    <g transform="translate(9, 41)" clip-path="url(#terminal-2071528186-clip-terminal)">
    <rect fill="#272822" x="0" y="172.3" width="976" height="24.65" shape-rendering="crispEdges"/><rect fill="#272822" x="0" y="196.7" width="12.2" height="24.65" shape-rendering="crispEdges"/><rect fill="#272822" x="12.2" y="196.7" width="36.6" height="24.65" shape-rendering="crispEdges"/><rect fill="#272822" x="48.8" y="196.7" width="12.2" height="24.65" shape-rendering="crispEdges"/><rect fill="#272822" x="61" y="196.7" width="109.8" height="24.65" shape-rendering="crispEdges"/><rect fill="#272822" x="170.8" y="196.7" width="12.2" height="24.65" shape-rendering="crispEdges"/><rect fill="#272822" x="183" y="196.7" width="36.6" height="24.65" shape-rendering="crispEdges"/><rect fill="#272822" x="219.6" y="196.7" width="12.2" height="24.65" shape-rendering="crispEdges"/><rect fill="#272822" x="231.8" y="196.7" width="12.2" height="24.65" shape-rendering="crispEdges"/><rect fill="#272822" x="244" y="196.7" width="719.8" height="24.65" shape-rendering="crispEdges"/><rect fill="#272822" x="963.8" y="196.7" width="12.2" height="24.65" shape-rendering="crispEdges"/><rect fill="#272822" x="0" y="221.1" width="12.2" height="24.65" shape-rendering="crispEdges"/><rect fill="#272822" x="12.2" y="221.1" width="48.8" height="24.65" shape-rendering="crispEdges"/><rect fill="#272822" x="61" y="221.1" width="24.4" height="24.65" shape-rendering="crispEdges"/><rect fill="#272822" x="85.4" y="221.1" width="12.2" height="24.65" shape-rendering="crispEdges"/><rect fill="#272822" x="97.6" y="221.1" width="36.6" height="24.65" shape-rendering="crispEdges"/><rect fill="#272822" x="134.2" y="221.1" width="12.2" height="24.65" shape-rendering="crispEdges"/><rect fill="#272822" x="146.4" y="221.1" width="36.6" height="24.65" shape-rendering="crispEdges"/><rect fill="#272822" x="183" y="221.1" width="12.2" height="24.65" shape-rendering="crispEdges"/><rect fill="#272822" x="195.2" y="221.1" width="12.2" height="24.65" shape-rendering="crispEdges"/><rect fill="#272822" x="207.4" y="221.1" width="12.2" height="24.65" shape-rendering="crispEdges"/><rect fill="#272822" x="219.6" y="221.1" width="12.2" height="24.65" shape-rendering="crispEdges"/><rect fill="#272822" x="231.8" y="221.1" width="12.2" height="24.65" shape-rendering="crispEdges"/><rect fill="#272822" x="244" y="221.1" width="12.2" height="24.65" shape-rendering="crispEdges"/><rect fill="#272822" x="256.2" y="221.1" width="12.2" height="24.65" shape-rendering="crispEdges"/><rect fill="#272822" x="268.4" y="221.1" width="695.4" height="24.65" shape-rendering="crispEdges"/><rect fill="#272822" x="963.8" y="221.1" width="12.2" height="24.65" shape-rendering="crispEdges"/><rect fill="#272822" x="0" y="245.5" width="12.2" height="24.65" shape-rendering="crispEdges"/><rect fill="#272822" x="12.2" y="245.5" width="97.6" height="24.65" shape-rendering="crispEdges"/><rect fill="#272822" x="109.8" y="245.5" width="73.2" height="24.65" shape-rendering="crispEdges"/><rect fill="#272822" x="183" y="245.5" width="12.2" height="24.65" shape-rendering="crispEdges"/><rect fill="#272822" x="195.2" y="245.5" width="36.6" height="24.65" shape-rendering="crispEdges"/><rect fill="#272822" x="231.8" y="245.5" width="732" height="24.65" shape-rendering="crispEdges"/><rect fill="#272822" x="963.8" y="245.5" width="12.2" height="24.65" shape-rendering="crispEdges"/><rect fill="#272822" x="0" y="269.9" width="12.2" height="24.65" shape-rendering="crispEdges"/><rect fill="#272822" x="12.2" y="269.9" width="48.8" height="24.65" shape-rendering="crispEdges"/><rect fill="#272822" x="61" y="269.9" width="61" height="24.65" shape-rendering="crispEdges"/><rect fill="#272822" x="122" y="269.9" width="12.2" height="24.65" shape-rendering="crispEdges"/><rect fill="#272822" x="134.2" y="269.9" width="12.2" height="24.65" shape-rendering="crispEdges"/><rect fill="#272822" x="146.4" y="269.9" width="12.2" height="24.65" shape-rendering="crispEdges"/><rect fill="#272822" x="158.6" y="269.9" width="36.6" height="24.65" shape-rendering="crispEdges"/><rect fill="#272822" x="195.2" y="269.9" width="12.2" height="24.65" shape-rendering="crispEdges"/><rect fill="#272822" x="207.4" y="269.9" width="36.6" height="24.65" shape-rendering="crispEdges"/><rect fill="#272822" x="244" y="269.9" width="12.2" height="24.65" shape-rendering="crispEdges"/><rect fill="#272822" x="256.2" y="269.9" width="36.6" height="24.65" shape-rendering="crispEdges"/><rect fill="#272822" x="292.8" y="269.9" width="12.2" height="24.65" shape-rendering="crispEdges"/><rect fill="#272822" x="305" y="269.9" width="12.2" height="24.65" shape-rendering="crispEdges"/><rect fill="#272822" x="317.2" y="269.9" width="12.2" height="24.65" shape-rendering="crispEdges"/><rect fill="#272822" x="329.4" y="269.9" width="12.2" height="24.65" shape-rendering="crispEdges"/><rect fill="#272822" x="341.6" y="269.9" width="12.2" height="24.65" shape-rendering="crispEdges"/><rect fill="#272822" x="353.8" y="269.9" width="12.2" height="24.65" shape-rendering="crispEdges"/><rect fill="#272822" x="366" y="269.9" width="12.2" height="24.65" shape-rendering="crispEdges"/><rect fill="#272822" x="378.2" y="269.9" width="585.6" height="24.65" shape-rendering="crispEdges"/><rect fill="#272822" x="963.8" y="269.9" width="12.2" height="24.65" shape-rendering="crispEdges"/><rect fill="#272822" x="0" y="294.3" width="12.2" height="24.65" shape-rendering="crispEdges"/><rect fill="#272822" x="12.2" y="294.3" width="48.8" height="24.65" shape-rendering="crispEdges"/><rect fill="#272822" x="61" y="294.3" width="48.8" height="24.65" shape-rendering="crispEdges"/><rect fill="#272822" x="109.8" y="294.3" width="12.2" height="24.65" shape-rendering="crispEdges"/><rect fill="#272822" x="122" y="294.3" width="12.2" height="24.65" shape-rendering="crispEdges"/><rect fill="#272822" x="134.2" y="294.3" width="12.2" height="24.65" shape-rendering="crispEdges"/><rect fill="#272822" x="146.4" y="294.3" width="12.2" height="24.65" shape-rendering="crispEdges"/><rect fill="#272822" x="158.6" y="294.3" width="12.2" height="24.65" shape-rendering="crispEdges"/><rect fill="#272822" x="170.8" y="294.3" width="12.2" height="24.65" shape-rendering="crispEdges"/><rect fill="#272822" x="183" y="294.3" width="36.6" height="24.65" shape-rendering="crispEdges"/><rect fill="#272822" x="219.6" y="294.3" width="12.2" height="24.65" shape-rendering="crispEdges"/><rect fill="#272822" x="231.8" y="294.3" width="12.2" height="24.65" shape-rendering="crispEdges"/><rect fill="#272822" x="244" y="294.3" width="12.2" height="24.65" shape-rendering="crispEdges"/><rect fill="#272822" x="256.2" y="294.3" width="24.4" height="24.65" shape-rendering="crispEdges"/><rect fill="#272822" x="280.6" y="294.3" width="12.2" height="24.65" shape-rendering="crispEdges"/><rect fill="#272822" x="292.8" y="294.3" width="36.6" height="24.65" shape-rendering="crispEdges"/><rect fill="#272822" x="329.4" y="294.3" width="12.2" height="24.65" shape-rendering="crispEdges"/><rect fill="#272822" x="341.6" y="294.3" width="24.4" height="24.65" shape-rendering="crispEdges"/><rect fill="#272822" x="366" y="294.3" width="12.2" height="24.65" shape-rendering="crispEdges"/><rect fill="#272822" x="378.2" y="294.3" width="12.2" height="24.65" shape-rendering="crispEdges"/><rect fill="#272822" x="390.4" y="294.3" width="12.2" height="24.65" shape-rendering="crispEdges"/><rect fill="#272822" x="402.6" y="294.3" width="12.2" height="24.65" shape-rendering="crispEdges"/><rect fill="#272822" x="414.8" y="294.3" width="12.2" height="24.65" shape-rendering="crispEdges"/><rect fill="#272822" x="427" y="294.3" width="61" height="24.65" shape-rendering="crispEdges"/><rect fill="#272822" x="488" y="294.3" width="12.2" height="24.65" shape-rendering="crispEdges"/><rect fill="#272822" x="500.2" y="294.3" width="463.6" height="24.65" shape-rendering="crispEdges"/><rect fill="#272822" x="963.8" y="294.3" width="12.2" height="24.65" shape-rendering="crispEdges"/><rect fill="#272822" x="0" y="318.7" width="12.2" height="24.65" shape-rendering="crispEdges"/><rect fill="#272822" x="12.2" y="318.7" width="48.8" height="24.65" shape-rendering="crispEdges"/><rect fill="#272822" x="61" y="318.7" width="73.2" height="24.65" shape-rendering="crispEdges"/><rect fill="#272822" x="134.2" y="318.7" width="12.2" height="24.65" shape-rendering="crispEdges"/><rect fill="#272822" x="146.4" y="318.7" width="12.2" height="24.65" shape-rendering="crispEdges"/><rect fill="#272822" x="158.6" y="318.7" width="12.2" height="24.65" shape-rendering="crispEdges"/><rect fill="#272822" x="170.8" y="318.7" width="12.2" height="24.65" shape-rendering="crispEdges"/><rect fill="#272822" x="183" y="318.7" width="12.2" height="24.65" shape-rendering="crispEdges"/><rect fill="#272822" x="195.2" y="318.7" width="12.2" height="24.65" shape-rendering="crispEdges"/><rect fill="#272822" x="207.4" y="318.7" width="36.6" height="24.65" shape-rendering="crispEdges"/><rect fill="#272822" x="244" y="318.7" width="12.2" height="24.65" shape-rendering="crispEdges"/><rect fill="#272822" x="256.2" y="318.7" width="12.2" height="24.65" shape-rendering="crispEdges"/><rect fill="#272822" x="268.4" y="318.7" width="12.2" height="24.65" shape-rendering="crispEdges"/><rect fill="#272822" x="280.6" y="318.7" width="24.4" height="24.65" shape-rendering="crispEdges"/><rect fill="#272822" x="305" y="318.7" width="12.2" height="24.65" shape-rendering="crispEdges"/><rect fill="#272822" x="317.2" y="318.7" width="36.6" height="24.65" shape-rendering="crispEdges"/><rect fill="#272822" x="353.8" y="318.7" width="12.2" height="24.65" shape-rendering="crispEdges"/><rect fill="#272822" x="366" y="318.7" width="24.4" height="24.65" shape-rendering="crispEdges"/><rect fill="#272822" x="390.4" y="318.7" width="12.2" height="24.65" shape-rendering="crispEdges"/><rect fill="#272822" x="402.6" y="318.7" width="12.2" height="24.65" shape-rendering="crispEdges"/><rect fill="#272822" x="414.8" y="318.7" width="12.2" height="24.65" shape-rendering="crispEdges"/><rect fill="#272822" x="427" y="318.7" width="24.4" height="24.65" shape-rendering="crispEdges"/><rect fill="#272822" x="451.4" y="318.7" width="12.2" height="24.65" shape-rendering="crispEdges"/><rect fill="#272822" x="463.6" y="318.7" width="61" height="24.65" shape-rendering="crispEdges"/><rect fill="#272822" x="524.6" y="318.7" width="12.2" height="24.65" shape-rendering="crispEdges"/><rect fill="#272822" x="536.8" y="318.7" width="427" height="24.65" shape-rendering="crispEdges"/><rect fill="#272822" x="963.8" y="318.7" width="12.2" height="24.65" shape-rendering="crispEdges"/><rect fill="#272822" x="0" y="343.1" width="12.2" height="24.65" shape-rendering="crispEdges"/><rect fill="#272822" x="12.2" y="343.1" width="48.8" height="24.65" shape-rendering="crispEdges"/><rect fill="#272822" x="61" y="343.1" width="61" height="24.65" shape-rendering="crispEdges"/><rect fill="#272822" x="122" y="343.1" width="12.2" height="24.65" shape-rendering="crispEdges"/><rect fill="#272822" x="134.2" y="343.1" width="12.2" height="24.65" shape-rendering="crispEdges"/><rect fill="#272822" x="146.4" y="343.1" width="12.2" height="24.65" shape-rendering="crispEdges"/><rect fill="#272822" x="158.6" y="343.1" width="12.2" height="24.65" shape-rendering="crispEdges"/><rect fill="#272822" x="170.8" y="343.1" width="12.2" height="24.65" shape-rendering="crispEdges"/><rect fill="#272822" x="183" y="343.1" width="12.2" height="24.65" shape-rendering="crispEdges"/><rect fill="#272822" x="195.2" y="343.1" width="36.6" height="24.65" shape-rendering="crispEdges"/><rect fill="#272822" x="231.8" y="343.1" width="12.2" height="24.65" shape-rendering="crispEdges"/><rect fill="#272822" x="244" y="343.1" width="12.2" height="24.65" shape-rendering="crispEdges"/><rect fill="#272822" x="256.2" y="343.1" width="12.2" height="24.65" shape-rendering="crispEdges"/><rect fill="#272822" x="268.4" y="343.1" width="24.4" height="24.65" shape-rendering="crispEdges"/><rect fill="#272822" x="292.8" y="343.1" width="12.2" height="24.65" shape-rendering="crispEdges"/><rect fill="#272822" x="305" y="343.1" width="36.6" height="24.65" shape-rendering="crispEdges"/><rect fill="#272822" x="341.6" y="343.1" width="12.2" height="24.65" shape-rendering="crispEdges"/><rect fill="#272822" x="353.8" y="343.1" width="24.4" height="24.65" shape-rendering="crispEdges"/><rect fill="#272822" x="378.2" y="343.1" width="12.2" height="24.65" shape-rendering="crispEdges"/><rect fill="#272822" x="390.4" y="343.1" width="12.2" height="24.65" shape-rendering="crispEdges"/><rect fill="#272822" x="402.6" y="343.1" width="12.2" height="24.65" shape-rendering="crispEdges"/><rect fill="#272822" x="414.8" y="343.1" width="12.2" height="24.65" shape-rendering="crispEdges"/><rect fill="#272822" x="427" y="343.1" width="12.2" height="24.65" shape-rendering="crispEdges"/><rect fill="#272822" x="439.2" y="343.1" width="61" height="24.65" shape-rendering="crispEdges"/><rect fill="#272822" x="500.2" y="343.1" width="12.2" height="24.65" shape-rendering="crispEdges"/><rect fill="#272822" x="512.4" y="343.1" width="451.4" height="24.65" shape-rendering="crispEdges"/><rect fill="#272822" x="963.8" y="343.1" width="12.2" height="24.65" shape-rendering="crispEdges"/><rect fill="#272822" x="0" y="367.5" width="12.2" height="24.65" shape-rendering="crispEdges"/><rect fill="#272822" x="12.2" y="367.5" width="48.8" height="24.65" shape-rendering="crispEdges"/><rect fill="#272822" x="61" y="367.5" width="73.2" height="24.65" shape-rendering="crispEdges"/><rect fill="#272822" x="134.2" y="367.5" width="12.2" height="24.65" shape-rendering="crispEdges"/><rect fill="#272822" x="146.4" y="367.5" width="109.8" height="24.65" shape-rendering="crispEdges"/><rect fill="#272822" x="256.2" y="367.5" width="12.2" height="24.65" shape-rendering="crispEdges"/><rect fill="#272822" x="268.4" y="367.5" width="48.8" height="24.65" shape-rendering="crispEdges"/><rect fill="#272822" x="317.2" y="367.5" width="12.2" height="24.65" shape-rendering="crispEdges"/><rect fill="#272822" x="329.4" y="367.5" width="12.2" height="24.65" shape-rendering="crispEdges"/><rect fill="#272822" x="341.6" y="367.5" width="12.2" height="24.65" shape-rendering="crispEdges"/><rect fill="#272822" x="353.8" y="367.5" width="12.2" height="24.65" shape-rendering="crispEdges"/><rect fill="#272822" x="366" y="367.5" width="73.2" height="24.65" shape-rendering="crispEdges"/><rect fill="#272822" x="439.2" y="367.5" width="12.2" height="24.65" shape-rendering="crispEdges"/><rect fill="#272822" x="451.4" y="367.5" width="12.2" height="24.65" shape-rendering="crispEdges"/><rect fill="#272822" x="463.6" y="367.5" width="12.2" height="24.65" shape-rendering="crispEdges"/><rect fill="#272822" x="475.8" y="367.5" width="109.8" height="24.65" shape-rendering="crispEdges"/><rect fill="#272822" x="585.6" y="367.5" width="12.2" height="24.65" shape-rendering="crispEdges"/><rect fill="#272822" x="597.8" y="367.5" width="61" height="24.65" shape-rendering="crispEdges"/><rect fill="#272822" x="658.8" y="367.5" width="12.2" height="24.65" shape-rendering="crispEdges"/><rect fill="#272822" x="671" y="367.5" width="292.8" height="24.65" shape-rendering="crispEdges"/><rect fill="#272822" x="963.8" y="367.5" width="12.2" height="24.65" shape-rendering="crispEdges"/><rect fill="#272822" x="0" y="391.9" width="12.2" height="24.65" shape-rendering="crispEdges"/><rect fill="#272822" x="12.2" y="391.9" width="951.6" height="24.65" shape-rendering="crispEdges"/><rect fill="#272822" x="963.8" y="391.9" width="12.2" height="24.65" shape-rendering="crispEdges"/><rect fill="#272822" x="0" y="416.3" width="12.2" height="24.65" shape-rendering="crispEdges"/><rect fill="#272822" x="12.2" y="416.3" width="122" height="24.65" shape-rendering="crispEdges"/><rect fill="#272822" x="134.2" y="416.3" width="829.6" height="24.65" shape-rendering="crispEdges"/><rect fill="#272822" x="963.8" y="416.3" width="12.2" height="24.65" shape-rendering="crispEdges"/><rect fill="#272822" x="0" y="440.7" width="12.2" height="24.65" shape-rendering="crispEdges"/><rect fill="#272822" x="12.2" y="440.7" width="61" height="24.65" shape-rendering="crispEdges"/><rect fill="#272822" x="73.2" y="440.7" width="12.2" height="24.65" shape-rendering="crispEdges"/><rect fill="#272822" x="85.4" y="440.7" width="109.8" height="24.65" shape-rendering="crispEdges"/><rect fill="#272822" x="195.2" y="440.7" width="12.2" height="24.65" shape-rendering="crispEdges"/><rect fill="#272822" x="207.4" y="440.7" width="12.2" height="24.65" shape-rendering="crispEdges"/><rect fill="#272822" x="219.6" y="440.7" width="12.2" height="24.65" shape-rendering="crispEdges"/><rect fill="#272822" x="231.8" y="440.7" width="12.2" height="24.65" shape-rendering="crispEdges"/><rect fill="#272822" x="244" y="440.7" width="12.2" height="24.65" shape-rendering="crispEdges"/><rect fill="#272822" x="256.2" y="440.7" width="12.2" height="24.65" shape-rendering="crispEdges"/><rect fill="#272822" x="268.4" y="440.7" width="12.2" height="24.65" shape-rendering="crispEdges"/><rect fill="#272822" x="280.6" y="440.7" width="12.2" height="24.65" shape-rendering="crispEdges"/><rect fill="#272822" x="292.8" y="440.7" width="24.4" height="24.65" shape-rendering="crispEdges"/><rect fill="#272822" x="317.2" y="440.7" width="12.2" height="24.65" shape-rendering="crispEdges"/><rect fill="#272822" x="329.4" y="440.7" width="12.2" height="24.65" shape-rendering="crispEdges"/><rect fill="#272822" x="341.6" y="440.7" width="12.2" height="24.65" shape-rendering="crispEdges"/><rect fill="#272822" x="353.8" y="440.7" width="12.2" height="24.65" shape-rendering="crispEdges"/><rect fill="#272822" x="366" y="440.7" width="12.2" height="24.65" shape-rendering="crispEdges"/><rect fill="#272822" x="378.2" y="440.7" width="12.2" height="24.65" shape-rendering="crispEdges"/><rect fill="#272822" x="390.4" y="440.7" width="12.2" height="24.65" shape-rendering="crispEdges"/><rect fill="#272822" x="402.6" y="440.7" width="12.2" height="24.65" shape-rendering="crispEdges"/><rect fill="#272822" x="414.8" y="440.7" width="12.2" height="24.65" shape-rendering="crispEdges"/><rect fill="#272822" x="427" y="440.7" width="536.8" height="24.65" shape-rendering="crispEdges"/><rect fill="#272822" x="963.8" y="440.7" width="12.2" height="24.65" shape-rendering="crispEdges"/><rect fill="#272822" x="0" y="465.1" width="976" height="24.65" shape-rendering="crispEdges"/>
    <g class="terminal-2071528186-matrix">
    <text class="terminal-2071528186-r1" x="976" y="20" textLength="12.2" clip-path="url(#terminal-2071528186-line-0)">
</text><text class="terminal-2071528186-r1" x="0" y="44.4" textLength="244" clip-path="url(#terminal-2071528186-line-1)">❯&#160;帮我写一段快排代码，用&#160;Python</text><text class="terminal-2071528186-r1" x="976" y="44.4" textLength="12.2" clip-path="url(#terminal-2071528186-line-1)">
</text><text class="terminal-2071528186-r1" x="976" y="68.8" textLength="12.2" clip-path="url(#terminal-2071528186-line-2)">
</text><text class="terminal-2071528186-r1" x="0" y="93.2" textLength="48.8" clip-path="url(#terminal-2071528186-line-3)">&#160;&#160;🤖&#160;</text><text class="terminal-2071528186-r2" x="61" y="93.2" textLength="24.4" clip-path="url(#terminal-2071528186-line-3)">AI</text><text class="terminal-2071528186-r3" x="109.8" y="93.2" textLength="97.6" clip-path="url(#terminal-2071528186-line-3)">10:30:00</text><text class="terminal-2071528186-r1" x="976" y="93.2" textLength="12.2" clip-path="url(#terminal-2071528186-line-3)">
</text><text class="terminal-2071528186-r1" x="976" y="117.6" textLength="12.2" clip-path="url(#terminal-2071528186-line-4)">
</text><text class="terminal-2071528186-r1" x="0" y="142" textLength="732" clip-path="url(#terminal-2071528186-line-5)">当然，这里是使用&#160;Python&#160;实现的快速排序（Quicksort）代码：&#160;&#160;&#160;&#160;&#160;&#160;&#160;&#160;&#160;&#160;&#160;&#160;&#160;&#160;&#160;&#160;&#160;&#160;&#160;&#160;&#160;&#160;&#160;</text><text class="terminal-2071528186-r1" x="976" y="142" textLength="12.2" clip-path="url(#terminal-2071528186-line-5)">
</text><text class="terminal-2071528186-r1" x="976" y="166.4" textLength="12.2" clip-path="url(#terminal-2071528186-line-6)">
</text><text class="terminal-2071528186-r1" x="976" y="190.8" textLength="12.2" clip-path="url(#terminal-2071528186-line-7)">
</text><text class="terminal-2071528186-r4" x="12.2" y="215.2" textLength="36.6" clip-path="url(#terminal-2071528186-line-8)">def</text><text class="terminal-2071528186-r6" x="61" y="215.2" textLength="109.8" clip-path="url(#terminal-2071528186-line-8)">quicksort</text><text class="terminal-2071528186-r5" x="170.8" y="215.2" textLength="12.2" clip-path="url(#terminal-2071528186-line-8)">(</text><text class="terminal-2071528186-r5" x="183" y="215.2" textLength="36.6" clip-path="url(#terminal-2071528186-line-8)">arr</text><text class="terminal-2071528186-r5" x="219.6" y="215.2" textLength="12.2" clip-path="url(#terminal-2071528186-line-8)">)</text><text class="terminal-2071528186-r5" x="231.8" y="215.2" textLength="12.2" clip-path="url(#terminal-2071528186-line-8)">:</text><text class="terminal-2071528186-r1" x="976" y="215.2" textLength="12.2" clip-path="url(#terminal-2071528186-line-8)">
</text><text class="terminal-2071528186-r4" x="61" y="239.6" textLength="24.4" clip-path="url(#terminal-2071528186-line-9)">if</text><text class="terminal-2071528186-r5" x="97.6" y="239.6" textLength="36.6" clip-path="url(#terminal-2071528186-line-9)">len</text><text class="terminal-2071528186-r5" x="134.2" y="239.6" textLength="12.2" clip-path="url(#terminal-2071528186-line-9)">(</text><text class="terminal-2071528186-r5" x="146.4" y="239.6" textLength="36.6" clip-path="url(#terminal-2071528186-line-9)">arr</text><text class="terminal-2071528186-r5" x="183" y="239.6" textLength="12.2" clip-path="url(#terminal-2071528186-line-9)">)</text><text class="terminal-2071528186-r7" x="207.4" y="239.6" textLength="12.2" clip-path="url(#terminal-2071528186-line-9)">&lt;</text><text class="terminal-2071528186-r7" x="219.6" y="239.6" textLength="12.2" clip-path="url(#terminal-2071528186-line-9)">=</text><text class="terminal-2071528186-r8" x="244" y="239.6" textLength="12.2" clip-path="url(#terminal-2071528186-line-9)">1</text><text class="terminal-2071528186-r5" x="256.2" y="239.6" textLength="12.2" clip-path="url(#terminal-2071528186-line-9)">:</text><text class="terminal-2071528186-r1" x="976" y="239.6" textLength="12.2" clip-path="url(#terminal-2071528186-line-9)">
</text><text class="terminal-2071528186-r4" x="109.8" y="264" textLength="73.2" clip-path="url(#terminal-2071528186-line-10)">return</text><text class="terminal-2071528186-r5" x="195.2" y="264" textLength="36.6" clip-path="url(#terminal-2071528186-line-10)">arr</text><text class="terminal-2071528186-r1" x="976" y="264" textLength="12.2" clip-path="url(#terminal-2071528186-line-10)">
</text><text class="terminal-2071528186-r5" x="61" y="288.4" textLength="61" clip-path="url(#terminal-2071528186-line-11)">pivot</text><text class="terminal-2071528186-r7" x="134.2" y="288.4" textLength="12.2" clip-path="url(#terminal-2071528186-line-11)">=</text><text class="terminal-2071528186-r5" x="158.6" y="288.4" textLength="36.6" clip-path="url(#terminal-2071528186-line-11)">arr</text><text class="terminal-2071528186-r5" x="195.2" y="288.4" textLength="12.2" clip-path="url(#terminal-2071528186-line-11)">[</text><text class="terminal-2071528186-r5" x="207.4" y="288.4" textLength="36.6" clip-path="url(#terminal-2071528186-line-11)">len</text><text class="terminal-2071528186-r5" x="244" y="288.4" textLength="12.2" clip-path="url(#terminal-2071528186-line-11)">(</text><text class="terminal-2071528186-r5" x="256.2" y="288.4" textLength="36.6" clip-path="url(#terminal-2071528186-line-11)">arr</text><text class="terminal-2071528186-r5" x="292.8" y="288.4" textLength="12.2" clip-path="url(#terminal-2071528186-line-11)">)</text><text class="terminal-2071528186-r7" x="317.2" y="288.4" textLength="12.2" clip-path="url(#terminal-2071528186-line-11)">/</text><text class="terminal-2071528186-r7" x="329.4" y="288.4" textLength="12.2" clip-path="url(#terminal-2071528186-line-11)">/</text><text class="terminal-2071528186-r8" x="353.8" y="288.4" textLength="12.2" clip-path="url(#terminal-2071528186-line-11)">2</text><text class="terminal-2071528186-r5" x="366" y="288.4" textLength="12.2" clip-path="url(#terminal-2071528186-line-11)">]</text><text class="terminal-2071528186-r1" x="976" y="288.4" textLength="12.2" clip-path="url(#terminal-2071528186-line-11)">
</text><text class="terminal-2071528186-r5" x="61" y="312.8" textLength="48.8" clip-path="url(#terminal-2071528186-line-12)">left</text><text class="terminal-2071528186-r7" x="122" y="312.8" textLength="12.2" clip-path="url(#terminal-2071528186-line-12)">=</text><text class="terminal-2071528186-r5" x="146.4" y="312.8" textLength="12.2" clip-path="url(#terminal-2071528186-line-12)">[</text><text class="terminal-2071528186-r5" x="158.6" y="312.8" textLength="12.2" clip-path="url(#terminal-2071528186-line-12)">x</text><text class="terminal-2071528186-r4" x="183" y="312.8" textLength="36.6" clip-path="url(#terminal-2071528186-line-12)">for</text><text class="terminal-2071528186-r5" x="231.8" y="312.8" textLength="12.2" clip-path="url(#terminal-2071528186-line-12)">x</text><text class="terminal-2071528186-r7" x="256.2" y="312.8" textLength="24.4" clip-path="url(#terminal-2071528186-line-12)">in</text><text class="terminal-2071528186-r5" x="292.8" y="312.8" textLength="36.6" clip-path="url(#terminal-2071528186-line-12)">arr</text><text class="terminal-2071528186-r4" x="341.6" y="312.8" textLength="24.4" clip-path="url(#terminal-2071528186-line-12)">if</text><text class="terminal-2071528186-r5" x="378.2" y="312.8" textLength="12.2" clip-path="url(#terminal-2071528186-line-12)">x</text><text class="terminal-2071528186-r7" x="402.6" y="312.8" textLength="12.2" clip-path="url(#terminal-2071528186-line-12)">&lt;</text><text class="terminal-2071528186-r5" x="427" y="312.8" textLength="61" clip-path="url(#terminal-2071528186-line-12)">pivot</text><text class="terminal-2071528186-r5" x="488" y="312.8" textLength="12.2" clip-path="url(#terminal-2071528186-line-12)">]</text><text class="terminal-2071528186-r1" x="976" y="312.8" textLength="12.2" clip-path="url(#terminal-2071528186-line-12)">
</text><text class="terminal-2071528186-r5" x="61" y="337.2" textLength="73.2" clip-path="url(#terminal-2071528186-line-13)">middle</text><text class="terminal-2071528186-r7" x="146.4" y="337.2" textLength="12.2" clip-path="url(#terminal-2071528186-line-13)">=</text><text class="terminal-2071528186-r5" x="170.8" y="337.2" textLength="12.2" clip-path="url(#terminal-2071528186-line-13)">[</text><text class="terminal-2071528186-r5" x="183" y="337.2" textLength="12.2" clip-path="url(#terminal-2071528186-line-13)">x</text><text class="terminal-2071528186-r4" x="207.4" y="337.2" textLength="36.6" clip-path="url(#terminal-2071528186-line-13)">for</text><text class="terminal-2071528186-r5" x="256.2" y="337.2" textLength="12.2" clip-path="url(#terminal-2071528186-line-13)">x</text><text class="terminal-2071528186-r7" x="280.6" y="337.2" textLength="24.4" clip-path="url(#terminal-2071528186-line-13)">in</text><text class="terminal-2071528186-r5" x="317.2" y="337.2" textLength="36.6" clip-path="url(#terminal-2071528186-line-13)">arr</text><text class="terminal-2071528186-r4" x="366" y="337.2" textLength="24.4" clip-path="url(#terminal-2071528186-line-13)">if</text><text class="terminal-2071528186-r5" x="402.6" y="337.2" textLength="12.2" clip-path="url(#terminal-2071528186-line-13)">x</text><text class="terminal-2071528186-r7" x="427" y="337.2" textLength="24.4" clip-path="url(#terminal-2071528186-line-13)">==</text><text class="terminal-2071528186-r5" x="463.6" y="337.2" textLength="61" clip-path="url(#terminal-2071528186-line-13)">pivot</text><text class="terminal-2071528186-r5" x="524.6" y="337.2" textLength="12.2" clip-path="url(#terminal-2071528186-line-13)">]</text><text class="terminal-2071528186-r1" x="976" y="337.2" textLength="12.2" clip-path="url(#terminal-2071528186-line-13)">
</text><text class="terminal-2071528186-r5" x="61" y="361.6" textLength="61" clip-path="url(#terminal-2071528186-line-14)">right</text><text class="terminal-2071528186-r7" x="134.2" y="361.6" textLength="12.2" clip-path="url(#terminal-2071528186-line-14)">=</text><text class="terminal-2071528186-r5" x="158.6" y="361.6" textLength="12.2" clip-path="url(#terminal-2071528186-line-14)">[</text><text class="terminal-2071528186-r5" x="170.8" y="361.6" textLength="12.2" clip-path="url(#terminal-2071528186-line-14)">x</text><text class="terminal-2071528186-r4" x="195.2" y="361.6" textLength="36.6" clip-path="url(#terminal-2071528186-line-14)">for</text><text class="terminal-2071528186-r5" x="244" y="361.6" textLength="12.2" clip-path="url(#terminal-2071528186-line-14)">x</text><text class="terminal-2071528186-r7" x="268.4" y="361.6" textLength="24.4" clip-path="url(#terminal-2071528186-line-14)">in</text><text class="terminal-2071528186-r5" x="305" y="361.6" textLength="36.6" clip-path="url(#terminal-2071528186-line-14)">arr</text><text class="terminal-2071528186-r4" x="353.8" y="361.6" textLength="24.4" clip-path="url(#terminal-2071528186-line-14)">if</text><text class="terminal-2071528186-r5" x="390.4" y="361.6" textLength="12.2" clip-path="url(#terminal-2071528186-line-14)">x</text><text class="terminal-2071528186-r7" x="414.8" y="361.6" textLength="12.2" clip-path="url(#terminal-2071528186-line-14)">&gt;</text><text class="terminal-2071528186-r5" x="439.2" y="361.6" textLength="61" clip-path="url(#terminal-2071528186-line-14)">pivot</text><text class="terminal-2071528186-r5" x="500.2" y="361.6" textLength="12.2" clip-path="url(#terminal-2071528186-line-14)">]</text><text class="terminal-2071528186-r1" x="976" y="361.6" textLength="12.2" clip-path="url(#terminal-2071528186-line-14)">
</text><text class="terminal-2071528186-r4" x="61" y="386" textLength="73.2" clip-path="url(#terminal-2071528186-line-15)">return</text><text class="terminal-2071528186-r5" x="146.4" y="386" textLength="109.8" clip-path="url(#terminal-2071528186-line-15)">quicksort</text><text class="terminal-2071528186-r5" x="256.2" y="386" textLength="12.2" clip-path="url(#terminal-2071528186-line-15)">(</text><text class="terminal-2071528186-r5" x="268.4" y="386" textLength="48.8" clip-path="url(#terminal-2071528186-line-15)">left</text><text class="terminal-2071528186-r5" x="317.2" y="386" textLength="12.2" clip-path="url(#terminal-2071528186-line-15)">)</text><text class="terminal-2071528186-r7" x="341.6" y="386" textLength="12.2" clip-path="url(#terminal-2071528186-line-15)">+</text><text class="terminal-2071528186-r5" x="366" y="386" textLength="73.2" clip-path="url(#terminal-2071528186-line-15)">middle</text><text class="terminal-2071528186-r7" x="451.4" y="386" textLength="12.2" clip-path="url(#terminal-2071528186-line-15)">+</text><text class="terminal-2071528186-r5" x="475.8" y="386" textLength="109.8" clip-path="url(#terminal-2071528186-line-15)">quicksort</text><text class="terminal-2071528186-r5" x="585.6" y="386" textLength="12.2" clip-path="url(#terminal-2071528186-line-15)">(</text><text class="terminal-2071528186-r5" x="597.8" y="386" textLength="61" clip-path="url(#terminal-2071528186-line-15)">right</text><text class="terminal-2071528186-r5" x="658.8" y="386" textLength="12.2" clip-path="url(#terminal-2071528186-line-15)">)</text><text class="terminal-2071528186-r1" x="976" y="386" textLength="12.2" clip-path="url(#terminal-2071528186-line-15)">
</text><text class="terminal-2071528186-r1" x="976" y="410.4" textLength="12.2" clip-path="url(#terminal-2071528186-line-16)">
</text><text class="terminal-2071528186-r9" x="12.2" y="434.8" textLength="73.2" clip-path="url(#terminal-2071528186-line-17)">#&#160;测试示例</text><text class="terminal-2071528186-r1" x="976" y="434.8" textLength="12.2" clip-path="url(#terminal-2071528186-line-17)">
</text><text class="terminal-2071528186-r5" x="12.2" y="459.2" textLength="61" clip-path="url(#terminal-2071528186-line-18)">print</text><text class="terminal-2071528186-r5" x="73.2" y="459.2" textLength="12.2" clip-path="url(#terminal-2071528186-line-18)">(</text><text class="terminal-2071528186-r5" x="85.4" y="459.2" textLength="109.8" clip-path="url(#terminal-2071528186-line-18)">quicksort</text><text class="terminal-2071528186-r5" x="195.2" y="459.2" textLength="12.2" clip-path="url(#terminal-2071528186-line-18)">(</text><text class="terminal-2071528186-r5" x="207.4" y="459.2" textLength="12.2" clip-path="url(#terminal-2071528186-line-18)">[</text><text class="terminal-2071528186-r8" x="219.6" y="459.2" textLength="12.2" clip-path="url(#terminal-2071528186-line-18)">3</text><text class="terminal-2071528186-r5" x="231.8" y="459.2" textLength="12.2" clip-path="url(#terminal-2071528186-line-18)">,</text><text class="terminal-2071528186-r8" x="244" y="459.2" textLength="12.2" clip-path="url(#terminal-2071528186-line-18)">6</text><text class="terminal-2071528186-r5" x="256.2" y="459.2" textLength="12.2" clip-path="url(#terminal-2071528186-line-18)">,</text><text class="terminal-2071528186-r8" x="268.4" y="459.2" textLength="12.2" clip-path="url(#terminal-2071528186-line-18)">8</text><text class="terminal-2071528186-r5" x="280.6" y="459.2" textLength="12.2" clip-path="url(#terminal-2071528186-line-18)">,</text><text class="terminal-2071528186-r8" x="292.8" y="459.2" textLength="24.4" clip-path="url(#terminal-2071528186-line-18)">10</text><text class="terminal-2071528186-r5" x="317.2" y="459.2" textLength="12.2" clip-path="url(#terminal-2071528186-line-18)">,</text><text class="terminal-2071528186-r8" x="329.4" y="459.2" textLength="12.2" clip-path="url(#terminal-2071528186-line-18)">1</text><text class="terminal-2071528186-r5" x="341.6" y="459.2" textLength="12.2" clip-path="url(#terminal-2071528186-line-18)">,</text><text class="terminal-2071528186-r8" x="353.8" y="459.2" textLength="12.2" clip-path="url(#terminal-2071528186-line-18)">2</text><text class="terminal-2071528186-r5" x="366" y="459.2" textLength="12.2" clip-path="url(#terminal-2071528186-line-18)">,</text><text class="terminal-2071528186-r8" x="378.2" y="459.2" textLength="12.2" clip-path="url(#terminal-2071528186-line-18)">1</text><text class="terminal-2071528186-r5" x="390.4" y="459.2" textLength="12.2" clip-path="url(#terminal-2071528186-line-18)">]</text><text class="terminal-2071528186-r5" x="402.6" y="459.2" textLength="12.2" clip-path="url(#terminal-2071528186-line-18)">)</text><text class="terminal-2071528186-r5" x="414.8" y="459.2" textLength="12.2" clip-path="url(#terminal-2071528186-line-18)">)</text><text class="terminal-2071528186-r1" x="976" y="459.2" textLength="12.2" clip-path="url(#terminal-2071528186-line-18)">
</text><text class="terminal-2071528186-r1" x="976" y="483.6" textLength="12.2" clip-path="url(#terminal-2071528186-line-19)">
</text><text class="terminal-2071528186-r1" x="976" y="508" textLength="12.2" clip-path="url(#terminal-2071528186-line-20)">
</text><text class="terminal-2071528186-r10" x="24.4" y="532.4" textLength="24.4" clip-path="url(#terminal-2071528186-line-21)">⏱&#160;</text><text class="terminal-2071528186-r11" x="48.8" y="532.4" textLength="24.4" clip-path="url(#terminal-2071528186-line-21)">2.</text><text class="terminal-2071528186-r10" x="73.2" y="532.4" textLength="109.8" clip-path="url(#terminal-2071528186-line-21)">1s&#160;&#160;|&#160;&#160;📝&#160;</text><text class="terminal-2071528186-r11" x="195.2" y="532.4" textLength="36.6" clip-path="url(#terminal-2071528186-line-21)">243</text><text class="terminal-2071528186-r10" x="231.8" y="532.4" textLength="73.2" clip-path="url(#terminal-2071528186-line-21)">&#160;chars</text><text class="terminal-2071528186-r1" x="976" y="532.4" textLength="12.2" clip-path="url(#terminal-2071528186-line-21)">
</text><text class="terminal-2071528186-r1" x="976" y="556.8" textLength="12.2" clip-path="url(#terminal-2071528186-line-22)">
</text>
    </g>
    </g>
</svg>
